<svg xmlns="http://www.w3.org/2000/svg" zoomAndPan="magnify" viewBox="-9.076495970000003 242.06252100000003 593.61028094 78.76075199999995" preserveAspectRatio="xMidYMid meet" version="1.0"><defs><g /><clipPath id="d701fd712a"><rect x="0" width="569" y="0" height="83" /></clipPath></defs><g transform="matrix(1, 0, 0, 1, 3, 246)"><g clip-path="url(#d701fd712a)"><g fill="#FFFFFF" fill-opacity="1"><g transform="translate(6.130045, 62.803267)"><g><path d="M 50.96875 -18.59375 L 51.296875 -15.359375 C 51.410156 -14.273438 51.453125 -13.066406 51.421875 -11.734375 C 51.390625 -10.398438 51.078125 -9.082031 50.484375 -7.78125 C 49.898438 -6.476562 48.878906 -5.351562 47.421875 -4.40625 C 45.960938 -3.46875 43.882812 -2.863281 41.1875 -2.59375 C 38.351562 -2.300781 35.859375 -2.757812 33.703125 -3.96875 C 31.546875 -5.175781 30.113281 -7.265625 29.40625 -10.234375 L 27.828125 -9.6875 C 28.003906 -8.8125 28.25 -7.941406 28.5625 -7.078125 C 28.882812 -6.222656 29.304688 -5.398438 29.828125 -4.609375 C 27.273438 -3.460938 24.796875 -2.765625 22.390625 -2.515625 C 18.421875 -2.109375 14.773438 -2.800781 11.453125 -4.59375 C 8.128906 -6.382812 5.367188 -9.046875 3.171875 -12.578125 C 0.972656 -16.117188 -0.375 -20.316406 -0.875 -25.171875 C -1.40625 -30.410156 -0.863281 -35.046875 0.75 -39.078125 C 2.363281 -43.109375 4.9375 -46.390625 8.46875 -48.921875 C 12 -51.460938 16.378906 -53.050781 21.609375 -53.6875 L 22.578125 -53.78125 C 27.316406 -54.269531 31.359375 -54.050781 34.703125 -53.125 C 38.046875 -52.207031 40.640625 -50.800781 42.484375 -48.90625 C 44.335938 -47.019531 45.390625 -44.851562 45.640625 -42.40625 C 45.804688 -40.78125 45.640625 -39.140625 45.140625 -37.484375 C 44.640625 -35.828125 43.820312 -34.394531 42.6875 -33.1875 C 41.550781 -31.988281 40.101562 -31.296875 38.34375 -31.109375 C 36.820312 -30.953125 35.453125 -31.109375 34.234375 -31.578125 C 33.023438 -32.046875 31.8125 -32.515625 30.59375 -32.984375 C 29.382812 -33.460938 28.023438 -33.625 26.515625 -33.46875 C 25.242188 -33.34375 24.242188 -32.832031 23.515625 -31.9375 C 22.785156 -31.050781 22.304688 -30.007812 22.078125 -28.8125 C 21.859375 -27.625 21.828125 -26.46875 21.984375 -25.34375 C 22.628906 -21.550781 24.765625 -19.84375 28.390625 -20.21875 C 28.503906 -21.519531 28.851562 -22.789062 29.4375 -24.03125 C 30.03125 -25.28125 31.046875 -26.363281 32.484375 -27.28125 C 33.929688 -28.195312 35.972656 -28.789062 38.609375 -29.0625 C 41.265625 -29.332031 43.390625 -29.148438 44.984375 -28.515625 C 46.585938 -27.890625 47.804688 -27.003906 48.640625 -25.859375 C 49.484375 -24.710938 50.054688 -23.484375 50.359375 -22.171875 C 50.660156 -20.859375 50.863281 -19.664062 50.96875 -18.59375 Z M 6.375 -40.90625 C 6.039062 -40.238281 5.691406 -39.597656 5.328125 -38.984375 C 4.960938 -38.378906 4.75 -37.648438 4.6875 -36.796875 C 4.832031 -36.460938 5.050781 -36.3125 5.34375 -36.34375 C 5.632812 -36.375 5.789062 -36.515625 5.8125 -36.765625 C 5.851562 -37.367188 5.992188 -37.90625 6.234375 -38.375 C 6.484375 -38.84375 6.757812 -39.3125 7.0625 -39.78125 C 8.875 -42.894531 11.171875 -45.140625 13.953125 -46.515625 C 16.734375 -47.898438 19.84375 -48.769531 23.28125 -49.125 C 24.5 -49.25 25.800781 -49.191406 27.1875 -48.953125 C 28.570312 -48.722656 29.757812 -48.472656 30.75 -48.203125 C 31.75 -47.929688 32.25 -47.796875 32.25 -47.796875 C 32.363281 -47.648438 32.46875 -47.582031 32.5625 -47.59375 C 32.757812 -47.613281 32.953125 -47.757812 33.140625 -48.03125 C 33.335938 -48.300781 33.421875 -48.582031 33.390625 -48.875 C 31.785156 -49.5625 30.015625 -50.023438 28.078125 -50.265625 C 26.148438 -50.515625 24.179688 -50.535156 22.171875 -50.328125 C 18.992188 -50.003906 15.960938 -49.0625 13.078125 -47.5 C 10.191406 -45.9375 7.957031 -43.738281 6.375 -40.90625 Z M 47.78125 -9.140625 C 47.863281 -9.378906 47.847656 -9.566406 47.734375 -9.703125 C 47.617188 -9.847656 47.460938 -9.910156 47.265625 -9.890625 C 47.066406 -9.867188 46.910156 -9.726562 46.796875 -9.46875 C 46.484375 -8.550781 45.71875 -7.78125 44.5 -7.15625 C 43.28125 -6.53125 41.957031 -6.144531 40.53125 -6 C 39.550781 -5.894531 38.617188 -5.929688 37.734375 -6.109375 C 36.859375 -6.296875 36.164062 -6.664062 35.65625 -7.21875 C 35.476562 -7.457031 35.363281 -7.707031 35.3125 -7.96875 C 35.257812 -8.226562 35.175781 -8.472656 35.0625 -8.703125 C 34.976562 -9.003906 34.765625 -9.132812 34.421875 -9.09375 C 34.078125 -9.0625 33.953125 -8.820312 34.046875 -8.375 C 34.179688 -8.050781 34.300781 -7.722656 34.40625 -7.390625 C 34.507812 -7.054688 34.648438 -6.742188 34.828125 -6.453125 C 35.410156 -5.722656 36.207031 -5.238281 37.21875 -5 C 38.238281 -4.757812 39.332031 -4.703125 40.5 -4.828125 C 42.082031 -4.984375 43.597656 -5.457031 45.046875 -6.25 C 46.492188 -7.039062 47.40625 -8.003906 47.78125 -9.140625 Z M 10.828125 -10.921875 C 10.484375 -10.878906 10.363281 -10.644531 10.46875 -10.21875 C 10.945312 -8.875 11.800781 -7.878906 13.03125 -7.234375 C 14.257812 -6.597656 15.609375 -6.191406 17.078125 -6.015625 C 18.554688 -5.847656 19.921875 -5.78125 21.171875 -5.8125 C 21.546875 -5.945312 21.707031 -6.144531 21.65625 -6.40625 C 21.613281 -6.675781 21.4375 -6.847656 21.125 -6.921875 C 20.082031 -6.910156 18.890625 -6.957031 17.546875 -7.0625 C 16.203125 -7.175781 14.957031 -7.492188 13.8125 -8.015625 C 12.675781 -8.535156 11.894531 -9.375 11.46875 -10.53125 C 11.382812 -10.820312 11.171875 -10.953125 10.828125 -10.921875 Z M 19.328125 -29.53125 C 19.472656 -29.195312 19.6875 -29.046875 19.96875 -29.078125 C 20.269531 -29.109375 20.425781 -29.25 20.4375 -29.5 C 20.457031 -30.34375 20.628906 -31.363281 20.953125 -32.5625 C 21.273438 -33.757812 21.960938 -34.53125 23.015625 -34.875 C 23.285156 -35.101562 23.382812 -35.335938 23.3125 -35.578125 C 23.238281 -35.828125 23.003906 -35.9375 22.609375 -35.90625 C 21.429688 -35.425781 20.597656 -34.550781 20.109375 -33.28125 C 19.617188 -32.019531 19.359375 -30.769531 19.328125 -29.53125 Z M 31.953125 -21.703125 C 31.847656 -21.234375 32.039062 -21.023438 32.53125 -21.078125 C 32.820312 -21.109375 32.976562 -21.25 33 -21.5 C 33.175781 -22.164062 33.675781 -22.8125 34.5 -23.4375 C 35.332031 -24.0625 36.117188 -24.410156 36.859375 -24.484375 C 37.160156 -24.515625 37.359375 -24.515625 37.453125 -24.484375 L 37.609375 -24.5 C 37.953125 -24.539062 38.109375 -24.707031 38.078125 -25 C 38.046875 -25.289062 37.875 -25.472656 37.5625 -25.546875 C 37.351562 -25.617188 37.03125 -25.628906 36.59375 -25.578125 C 35.613281 -25.484375 34.644531 -25.023438 33.6875 -24.203125 C 32.738281 -23.390625 32.160156 -22.554688 31.953125 -21.703125 Z M 40.109375 -23.9375 L 40.328125 -23.953125 C 40.710938 -24.085938 40.863281 -24.3125 40.78125 -24.625 C 40.695312 -24.945312 40.457031 -25.085938 40.0625 -25.046875 C 39.675781 -25.015625 39.5 -24.835938 39.53125 -24.515625 C 39.5625 -24.191406 39.753906 -24 40.109375 -23.9375 Z M 35.171875 -46.828125 C 35.253906 -46.492188 35.46875 -46.34375 35.8125 -46.375 C 36 -46.394531 36.113281 -46.457031 36.15625 -46.5625 C 36.488281 -46.75 36.613281 -46.984375 36.53125 -47.265625 C 36.445312 -47.554688 36.210938 -47.679688 35.828125 -47.640625 L 35.765625 -47.640625 C 35.421875 -47.597656 35.238281 -47.40625 35.21875 -47.0625 C 35.226562 -46.96875 35.210938 -46.890625 35.171875 -46.828125 Z M 8.78125 -13.671875 C 8.289062 -13.617188 8.195312 -13.316406 8.5 -12.765625 L 8.671875 -12.546875 C 8.835938 -12.410156 8.992188 -12.347656 9.140625 -12.359375 C 9.328125 -12.378906 9.457031 -12.503906 9.53125 -12.734375 C 9.601562 -12.972656 9.5625 -13.1875 9.40625 -13.375 C 9.394531 -13.414062 9.332031 -13.484375 9.21875 -13.578125 C 9.019531 -13.648438 8.875 -13.679688 8.78125 -13.671875 Z M 8.78125 -13.671875 " /></g></g></g><g fill="#FFFFFF" fill-opacity="1"><g transform="translate(60.088589, 58.00467)"><g><path d="M 39.484375 -46.46875 C 40.492188 -46.3125 41.515625 -45.957031 42.546875 -45.40625 C 43.585938 -44.863281 44.40625 -43.992188 45 -42.796875 C 45.601562 -41.609375 45.789062 -39.882812 45.5625 -37.625 C 45.3125 -35.070312 44.757812 -33.242188 43.90625 -32.140625 C 43.050781 -31.035156 42.082031 -30.382812 41 -30.1875 C 39.914062 -30 38.835938 -29.960938 37.765625 -30.078125 L 26.953125 -31.15625 L 26.734375 -29.109375 L 35.421875 -28.234375 C 36.296875 -28.148438 37.171875 -27.890625 38.046875 -27.453125 C 38.921875 -27.015625 39.628906 -26.285156 40.171875 -25.265625 C 40.710938 -24.242188 40.898438 -22.851562 40.734375 -21.09375 C 40.554688 -19.382812 40.097656 -18.082031 39.359375 -17.1875 C 38.628906 -16.289062 37.789062 -15.71875 36.84375 -15.46875 C 35.90625 -15.21875 35 -15.132812 34.125 -15.21875 L 21.78125 -16.453125 L 21.578125 -14.328125 L 36.125 -12.875 C 37.132812 -12.71875 38.15625 -12.363281 39.1875 -11.8125 C 40.226562 -11.269531 41.046875 -10.382812 41.640625 -9.15625 C 42.234375 -7.9375 42.421875 -6.195312 42.203125 -3.9375 C 41.984375 -1.726562 41.457031 -0.101562 40.625 0.9375 C 39.800781 1.988281 38.828125 2.671875 37.703125 2.984375 C 36.585938 3.304688 35.515625 3.460938 34.484375 3.453125 L 10.515625 1.046875 C 8.660156 0.859375 7.21875 0.34375 6.1875 -0.5 C 5.15625 -1.34375 4.429688 -2.300781 4.015625 -3.375 C 3.597656 -4.457031 3.363281 -5.503906 3.3125 -6.515625 C 3.269531 -7.535156 3.28125 -8.34375 3.34375 -8.9375 L 6.5 -40.484375 C 6.550781 -41.078125 6.703125 -41.867188 6.953125 -42.859375 C 7.203125 -43.859375 7.640625 -44.84375 8.265625 -45.8125 C 8.890625 -46.789062 9.789062 -47.59375 10.96875 -48.21875 C 12.144531 -48.84375 13.660156 -49.0625 15.515625 -48.875 Z M 8.953125 -7.859375 C 8.617188 -7.898438 8.453125 -7.691406 8.453125 -7.234375 C 8.515625 -6.890625 8.5625 -6.53125 8.59375 -6.15625 C 8.625 -5.78125 8.722656 -5.410156 8.890625 -5.046875 C 9.472656 -3.859375 10.710938 -2.992188 12.609375 -2.453125 C 14.503906 -1.910156 16.507812 -1.535156 18.625 -1.328125 C 20.238281 -1.160156 21.785156 -1.050781 23.265625 -1 C 24.742188 -0.957031 25.878906 -0.894531 26.671875 -0.8125 C 27.066406 -0.882812 27.253906 -1.082031 27.234375 -1.40625 C 27.210938 -1.726562 27.015625 -1.90625 26.640625 -1.9375 C 25.742188 -2.03125 24.578125 -2.085938 23.140625 -2.109375 C 21.710938 -2.128906 20.21875 -2.21875 18.65625 -2.375 C 16.738281 -2.570312 14.9375 -2.925781 13.25 -3.4375 C 11.570312 -3.945312 10.4375 -4.703125 9.84375 -5.703125 C 9.726562 -5.960938 9.65625 -6.238281 9.625 -6.53125 C 9.601562 -6.832031 9.5625 -7.109375 9.5 -7.359375 C 9.476562 -7.660156 9.296875 -7.828125 8.953125 -7.859375 Z M 11.703125 -41.234375 C 11.617188 -40.796875 11.742188 -40.5625 12.078125 -40.53125 C 12.421875 -40.5 12.628906 -40.625 12.703125 -40.90625 C 12.828125 -41.144531 12.925781 -41.421875 13 -41.734375 C 13.082031 -42.046875 13.210938 -42.289062 13.390625 -42.46875 C 14.171875 -43.382812 15.429688 -43.914062 17.171875 -44.0625 C 18.921875 -44.207031 20.75 -44.179688 22.65625 -43.984375 C 24.226562 -43.828125 25.71875 -43.617188 27.125 -43.359375 C 28.539062 -43.097656 29.691406 -42.921875 30.578125 -42.828125 C 30.960938 -42.796875 31.191406 -42.9375 31.265625 -43.25 C 31.347656 -43.5625 31.207031 -43.78125 30.84375 -43.90625 C 30.050781 -43.988281 28.921875 -44.148438 27.453125 -44.390625 C 25.992188 -44.640625 24.457031 -44.847656 22.84375 -45.015625 C 20.738281 -45.222656 18.695312 -45.25 16.71875 -45.09375 C 14.75 -44.945312 13.363281 -44.347656 12.5625 -43.296875 C 12.332031 -42.972656 12.164062 -42.640625 12.0625 -42.296875 C 11.96875 -41.960938 11.847656 -41.609375 11.703125 -41.234375 Z M 34.75 -43.078125 C 34.550781 -43.097656 34.375 -42.929688 34.21875 -42.578125 C 34.0625 -42.222656 34.128906 -42.03125 34.421875 -42 C 34.617188 -41.976562 34.796875 -42.015625 34.953125 -42.109375 C 35.179688 -42.367188 35.226562 -42.582031 35.09375 -42.75 C 34.957031 -42.957031 34.84375 -43.066406 34.75 -43.078125 Z M 31.0625 -1.78125 C 30.925781 -1.90625 30.757812 -1.972656 30.5625 -1.984375 C 30.28125 -2.015625 30.175781 -1.84375 30.25 -1.46875 C 30.332031 -1.09375 30.472656 -0.894531 30.671875 -0.875 C 30.773438 -0.863281 30.910156 -0.953125 31.078125 -1.140625 C 31.234375 -1.265625 31.226562 -1.476562 31.0625 -1.78125 Z M 31.0625 -1.78125 " /></g></g></g><g fill="#FFFFFF" fill-opacity="1"><g transform="translate(113.416636, 62.939943)"><g><path d="M 13.765625 -0.609375 C 11.160156 -0.316406 9.066406 -0.503906 7.484375 -1.171875 C 5.898438 -1.847656 4.679688 -2.796875 3.828125 -4.015625 C 2.972656 -5.242188 2.375 -6.539062 2.03125 -7.90625 C 1.6875 -9.28125 1.453125 -10.5625 1.328125 -11.75 L -1.65625 -38.90625 C -1.769531 -40.039062 -1.816406 -41.316406 -1.796875 -42.734375 C -1.785156 -44.148438 -1.507812 -45.539062 -0.96875 -46.90625 C -0.425781 -48.28125 0.539062 -49.460938 1.9375 -50.453125 C 3.34375 -51.453125 5.375 -52.097656 8.03125 -52.390625 C 9.644531 -52.566406 11.128906 -52.53125 12.484375 -52.28125 C 13.847656 -52.039062 15.15625 -51.40625 16.40625 -50.375 C 17.664062 -49.34375 18.957031 -47.738281 20.28125 -45.5625 L 25.875 -36.65625 L 27.5625 -37.578125 L 23.03125 -44.8125 C 22.71875 -45.53125 22.523438 -46.175781 22.453125 -46.75 C 22.242188 -48.71875 23.039062 -50.503906 24.84375 -52.109375 C 26.65625 -53.722656 29.347656 -54.726562 32.921875 -55.125 C 35.523438 -55.40625 37.613281 -55.207031 39.1875 -54.53125 C 40.769531 -53.863281 41.984375 -52.929688 42.828125 -51.734375 C 43.679688 -50.546875 44.28125 -49.265625 44.625 -47.890625 C 44.976562 -46.515625 45.21875 -45.234375 45.34375 -44.046875 L 48.328125 -16.890625 C 48.453125 -15.753906 48.503906 -14.476562 48.484375 -13.0625 C 48.460938 -11.65625 48.179688 -10.265625 47.640625 -8.890625 C 47.097656 -7.515625 46.125 -6.316406 44.71875 -5.296875 C 43.320312 -4.273438 41.300781 -3.617188 38.65625 -3.328125 C 37.039062 -3.148438 35.5625 -3.210938 34.21875 -3.515625 C 32.875 -3.816406 31.5 -4.582031 30.09375 -5.8125 C 28.695312 -7.050781 27.113281 -8.988281 25.34375 -11.625 L 19.984375 -19.875 L 18.375 -18.8125 L 23.625 -10.984375 C 23.945312 -10.265625 24.140625 -9.617188 24.203125 -9.046875 C 24.410156 -7.085938 23.628906 -5.289062 21.859375 -3.65625 C 20.085938 -2.019531 17.390625 -1.003906 13.765625 -0.609375 Z M 45.34375 -11.4375 C 45.195312 -11.414062 45.082031 -11.378906 45 -11.328125 C 44.0625 -10.328125 43.070312 -9.585938 42.03125 -9.109375 C 41 -8.628906 39.921875 -8.328125 38.796875 -8.203125 C 37.285156 -8.035156 35.742188 -8.109375 34.171875 -8.421875 L 33.84375 -7.359375 C 35.75 -7.015625 37.460938 -6.925781 38.984375 -7.09375 C 40.253906 -7.238281 41.457031 -7.578125 42.59375 -8.109375 C 43.726562 -8.648438 44.78125 -9.453125 45.75 -10.515625 C 45.96875 -10.785156 46.015625 -11.007812 45.890625 -11.1875 C 45.773438 -11.375 45.59375 -11.457031 45.34375 -11.4375 Z M 25.78125 -48.984375 C 25.613281 -48.773438 25.585938 -48.5625 25.703125 -48.34375 C 25.816406 -48.125 25.972656 -48.03125 26.171875 -48.0625 C 26.328125 -48.070312 26.453125 -48.109375 26.546875 -48.171875 C 27.460938 -49.160156 28.441406 -49.898438 29.484375 -50.390625 C 30.523438 -50.878906 31.613281 -51.179688 32.75 -51.296875 C 34.269531 -51.460938 35.8125 -51.382812 37.375 -51.0625 L 37.71875 -52.140625 C 35.789062 -52.484375 34.066406 -52.570312 32.546875 -52.40625 C 31.316406 -52.269531 30.132812 -51.9375 29 -51.40625 C 27.875 -50.882812 26.800781 -50.078125 25.78125 -48.984375 Z M 9.265625 -5.609375 L 8.9375 -4.546875 C 10.851562 -4.210938 12.570312 -4.128906 14.09375 -4.296875 C 15.375 -4.429688 16.578125 -4.769531 17.703125 -5.3125 C 18.828125 -5.851562 19.878906 -6.648438 20.859375 -7.703125 C 21.085938 -7.984375 21.140625 -8.21875 21.015625 -8.40625 C 20.898438 -8.59375 20.71875 -8.671875 20.46875 -8.640625 C 20.320312 -8.628906 20.195312 -8.59375 20.09375 -8.53125 C 19.175781 -7.53125 18.195312 -6.785156 17.15625 -6.296875 C 16.113281 -5.816406 15.03125 -5.515625 13.90625 -5.390625 C 12.382812 -5.222656 10.835938 -5.296875 9.265625 -5.609375 Z M 1.484375 -45.578125 C 1.316406 -45.367188 1.289062 -45.15625 1.40625 -44.9375 C 1.519531 -44.726562 1.671875 -44.632812 1.859375 -44.65625 C 2.015625 -44.664062 2.140625 -44.703125 2.234375 -44.765625 C 3.171875 -45.765625 4.15625 -46.503906 5.1875 -46.984375 C 6.21875 -47.472656 7.300781 -47.78125 8.4375 -47.90625 C 9.957031 -48.070312 11.5 -47.992188 13.0625 -47.671875 L 13.40625 -48.75 C 11.476562 -49.082031 9.753906 -49.164062 8.234375 -49 C 7.015625 -48.863281 5.835938 -48.535156 4.703125 -48.015625 C 3.566406 -47.492188 2.492188 -46.679688 1.484375 -45.578125 Z M 14.546875 -47.15625 C 14.628906 -46.820312 14.835938 -46.671875 15.171875 -46.703125 C 15.460938 -46.734375 15.617188 -46.898438 15.640625 -47.203125 C 15.597656 -47.648438 15.40625 -47.851562 15.0625 -47.8125 C 14.726562 -47.78125 14.550781 -47.585938 14.53125 -47.234375 Z M 32.046875 -9.390625 C 31.804688 -9.359375 31.648438 -9.1875 31.578125 -8.875 C 31.628906 -8.4375 31.828125 -8.238281 32.171875 -8.28125 C 32.515625 -8.320312 32.6875 -8.515625 32.6875 -8.859375 L 32.6875 -8.921875 C 32.601562 -9.273438 32.390625 -9.429688 32.046875 -9.390625 Z M 7.15625 -6.578125 C 6.914062 -6.554688 6.757812 -6.390625 6.6875 -6.078125 C 6.738281 -5.640625 6.9375 -5.4375 7.28125 -5.46875 C 7.625 -5.507812 7.800781 -5.707031 7.8125 -6.0625 L 7.796875 -6.140625 C 7.710938 -6.472656 7.5 -6.617188 7.15625 -6.578125 Z M 38.84375 -50.5625 C 38.925781 -50.226562 39.140625 -50.078125 39.484375 -50.109375 C 39.773438 -50.140625 39.929688 -50.304688 39.953125 -50.609375 C 39.898438 -51.046875 39.703125 -51.242188 39.359375 -51.203125 C 39.015625 -51.171875 38.835938 -50.976562 38.828125 -50.625 Z M 38.84375 -50.5625 " /></g></g></g><g fill="#FFFFFF" fill-opacity="1"><g transform="translate(163.95881, 58.063953)"><g><path d="M 25.390625 3.6875 C 24.066406 3.539062 22.425781 3.207031 20.46875 2.6875 C 18.519531 2.175781 16.503906 1.347656 14.421875 0.203125 C 12.347656 -0.941406 10.46875 -2.535156 8.78125 -4.578125 C 7.101562 -6.617188 5.828125 -9.222656 4.953125 -12.390625 C 4.085938 -15.554688 3.90625 -19.421875 4.40625 -23.984375 C 4.976562 -29.171875 6.425781 -33.664062 8.75 -37.46875 C 11.082031 -41.28125 14.1875 -44.132812 18.0625 -46.03125 C 21.945312 -47.925781 26.507812 -48.585938 31.75 -48.015625 L 31.8125 -48.015625 C 37 -47.390625 41.265625 -45.726562 44.609375 -43.03125 C 47.960938 -40.34375 50.347656 -36.890625 51.765625 -32.671875 C 53.179688 -28.453125 53.609375 -23.773438 53.046875 -18.640625 C 52.546875 -14.078125 51.523438 -10.34375 49.984375 -7.4375 C 48.453125 -4.539062 46.640625 -2.273438 44.546875 -0.640625 C 42.460938 0.984375 40.28125 2.128906 38 2.796875 C 35.726562 3.460938 33.582031 3.832031 31.5625 3.90625 C 29.550781 3.988281 27.890625 3.957031 26.578125 3.8125 Z M 26.109375 -18.46875 C 26.066406 -18.070312 26.125 -17.582031 26.28125 -17 C 26.445312 -16.414062 27.066406 -16.066406 28.140625 -15.953125 C 29.109375 -15.835938 29.722656 -16.046875 29.984375 -16.578125 C 30.242188 -17.117188 30.394531 -17.585938 30.4375 -17.984375 L 31.21875 -25.109375 C 31.257812 -25.503906 31.203125 -25.992188 31.046875 -26.578125 C 30.890625 -27.171875 30.273438 -27.523438 29.203125 -27.640625 C 28.273438 -27.742188 27.664062 -27.523438 27.375 -26.984375 C 27.09375 -26.453125 26.929688 -25.988281 26.890625 -25.59375 Z M 38.984375 -39.421875 C 39.390625 -39.472656 39.578125 -39.632812 39.546875 -39.90625 C 39.523438 -40.1875 39.320312 -40.398438 38.9375 -40.546875 C 37.789062 -41.316406 36.53125 -41.925781 35.15625 -42.375 C 33.789062 -42.820312 32.378906 -43.125 30.921875 -43.28125 C 27.929688 -43.613281 24.945312 -43.328125 21.96875 -42.421875 C 21.757812 -42.242188 21.675781 -42.035156 21.71875 -41.796875 C 21.769531 -41.566406 21.921875 -41.441406 22.171875 -41.421875 L 22.3125 -41.40625 C 24.632812 -42.238281 27.210938 -42.5 30.046875 -42.1875 C 33.273438 -41.832031 36.253906 -40.910156 38.984375 -39.421875 Z M 18.359375 -5.5 C 17.953125 -5.4375 17.769531 -5.265625 17.8125 -4.984375 C 17.863281 -4.710938 18.054688 -4.515625 18.390625 -4.390625 C 19.546875 -3.609375 20.800781 -2.988281 22.15625 -2.53125 C 23.519531 -2.082031 24.9375 -1.78125 26.40625 -1.625 C 29.394531 -1.289062 32.378906 -1.585938 35.359375 -2.515625 C 35.585938 -2.679688 35.675781 -2.878906 35.625 -3.109375 C 35.570312 -3.335938 35.421875 -3.460938 35.171875 -3.484375 L 35.03125 -3.5 C 32.707031 -2.675781 30.128906 -2.421875 27.296875 -2.734375 C 24.066406 -3.085938 21.085938 -4.007812 18.359375 -5.5 Z M 24.40625 -15.84375 C 24.070312 -15.875 23.90625 -15.664062 23.90625 -15.21875 C 24.007812 -14.414062 24.359375 -13.789062 24.953125 -13.34375 C 25.554688 -12.90625 26.222656 -12.644531 26.953125 -12.5625 C 27.691406 -12.488281 28.421875 -12.609375 29.140625 -12.921875 C 29.421875 -13.148438 29.507812 -13.363281 29.40625 -13.5625 C 29.300781 -13.769531 29.128906 -13.890625 28.890625 -13.921875 C 28.742188 -13.941406 28.640625 -13.929688 28.578125 -13.890625 C 28.066406 -13.691406 27.515625 -13.625 26.921875 -13.6875 C 26.441406 -13.75 26.003906 -13.910156 25.609375 -14.171875 C 25.210938 -14.429688 24.988281 -14.8125 24.9375 -15.3125 C 24.925781 -15.625 24.75 -15.800781 24.40625 -15.84375 Z M 34.59375 -26.59375 C 34.582031 -27.488281 34.332031 -28.3125 33.84375 -29.0625 C 33.363281 -29.8125 32.660156 -30.285156 31.734375 -30.484375 C 31.347656 -30.523438 31.132812 -30.382812 31.09375 -30.0625 C 31.0625 -29.75 31.210938 -29.519531 31.546875 -29.375 C 32.378906 -29.25 32.910156 -28.800781 33.140625 -28.03125 C 33.378906 -27.257812 33.492188 -26.796875 33.484375 -26.640625 C 33.535156 -26.296875 33.707031 -26.109375 34 -26.078125 C 34.351562 -26.035156 34.550781 -26.207031 34.59375 -26.59375 Z M 16.875 -6.84375 C 16.476562 -6.882812 16.265625 -6.734375 16.234375 -6.390625 C 16.191406 -5.992188 16.367188 -5.773438 16.765625 -5.734375 C 17.109375 -5.691406 17.300781 -5.867188 17.34375 -6.265625 C 17.375 -6.609375 17.21875 -6.800781 16.875 -6.84375 Z M 40.578125 -39.171875 C 40.234375 -39.210938 40.039062 -39.039062 40 -38.65625 C 39.957031 -38.3125 40.109375 -38.117188 40.453125 -38.078125 C 40.847656 -38.035156 41.066406 -38.1875 41.109375 -38.53125 C 41.148438 -38.914062 40.972656 -39.128906 40.578125 -39.171875 Z M 40.578125 -39.171875 " /></g></g></g><g fill="#FFFFFF" fill-opacity="1"><g transform="translate(227.634454, 63.161713)"><g><path d="M 53.3125 -21.984375 C 53.582031 -19.429688 53.71875 -17.101562 53.71875 -15 C 53.71875 -12.90625 53.40625 -11.054688 52.78125 -9.453125 C 52.164062 -7.847656 51.09375 -6.550781 49.5625 -5.5625 C 48.03125 -4.582031 45.890625 -3.945312 43.140625 -3.65625 C 39.515625 -3.269531 36.628906 -3.960938 34.484375 -5.734375 C 32.347656 -7.515625 31.09375 -10.117188 30.71875 -13.546875 L 30.484375 -15.734375 C 31.722656 -16.316406 32.671875 -17.238281 33.328125 -18.5 C 33.984375 -19.757812 34.273438 -21.175781 34.203125 -22.75 L 32.359375 -22.5625 C 32.453125 -20.738281 32.015625 -19.378906 31.046875 -18.484375 C 30.078125 -17.585938 28.832031 -17.0625 27.3125 -16.90625 C 25.738281 -16.726562 24.367188 -16.972656 23.203125 -17.640625 C 22.046875 -18.304688 21.332031 -19.539062 21.0625 -21.34375 L 19.21875 -21.15625 C 19.476562 -19.601562 20.070312 -18.28125 21 -17.1875 C 21.9375 -16.09375 23.039062 -15.390625 24.3125 -15.078125 L 24.546875 -12.890625 C 24.921875 -9.460938 24.242188 -6.648438 22.515625 -4.453125 C 20.796875 -2.265625 18.125 -0.976562 14.5 -0.59375 C 11.75 -0.300781 9.523438 -0.46875 7.828125 -1.09375 C 6.128906 -1.726562 4.804688 -2.765625 3.859375 -4.203125 C 2.921875 -5.640625 2.226562 -7.382812 1.78125 -9.4375 C 1.332031 -11.5 0.972656 -13.804688 0.703125 -16.359375 L -1.296875 -35.015625 C -1.503906 -36.921875 -1.597656 -38.835938 -1.578125 -40.765625 C -1.554688 -42.703125 -1.265625 -44.492188 -0.703125 -46.140625 C -0.148438 -47.785156 0.867188 -49.171875 2.359375 -50.296875 C 3.859375 -51.421875 5.957031 -52.128906 8.65625 -52.421875 C 11.882812 -52.765625 14.488281 -52.472656 16.46875 -51.546875 C 18.445312 -50.628906 19.957031 -49.34375 21 -47.6875 C 22.050781 -46.039062 22.785156 -44.320312 23.203125 -42.53125 C 23.617188 -40.75 23.898438 -39.175781 24.046875 -37.8125 L 24.421875 -34.296875 C 24.484375 -33.703125 24.828125 -33.4375 25.453125 -33.5 C 26.097656 -33.570312 26.390625 -33.90625 26.328125 -34.5 L 25.953125 -38.015625 C 25.804688 -39.378906 25.742188 -40.976562 25.765625 -42.8125 C 25.796875 -44.644531 26.144531 -46.476562 26.8125 -48.3125 C 27.488281 -50.15625 28.695312 -51.734375 30.4375 -53.046875 C 32.175781 -54.367188 34.660156 -55.203125 37.890625 -55.546875 C 40.640625 -55.847656 42.847656 -55.601562 44.515625 -54.8125 C 46.179688 -54.03125 47.460938 -52.894531 48.359375 -51.40625 C 49.265625 -49.914062 49.929688 -48.222656 50.359375 -46.328125 C 50.785156 -44.441406 51.101562 -42.546875 51.3125 -40.640625 Z M 2.328125 -44.765625 C 2.160156 -44.546875 2.132812 -44.328125 2.25 -44.109375 C 2.375 -43.898438 2.535156 -43.804688 2.734375 -43.828125 C 2.878906 -43.847656 3 -43.890625 3.09375 -43.953125 C 4.03125 -44.953125 5.015625 -45.691406 6.046875 -46.171875 C 7.085938 -46.648438 8.175781 -46.945312 9.3125 -47.0625 C 10.820312 -47.226562 12.363281 -47.15625 13.9375 -46.84375 L 14.265625 -47.890625 C 12.347656 -48.234375 10.628906 -48.328125 9.109375 -48.171875 C 7.878906 -48.035156 6.695312 -47.707031 5.5625 -47.1875 C 4.4375 -46.664062 3.359375 -45.859375 2.328125 -44.765625 Z M 42.1875 -50.890625 C 40.269531 -51.234375 38.550781 -51.320312 37.03125 -51.15625 C 35.800781 -51.03125 34.617188 -50.703125 33.484375 -50.171875 C 32.359375 -49.648438 31.28125 -48.847656 30.25 -47.765625 C 30.070312 -47.546875 30.046875 -47.328125 30.171875 -47.109375 C 30.296875 -46.898438 30.457031 -46.804688 30.65625 -46.828125 C 30.800781 -46.835938 30.921875 -46.875 31.015625 -46.9375 C 31.941406 -47.9375 32.925781 -48.675781 33.96875 -49.15625 C 35.007812 -49.632812 36.097656 -49.9375 37.234375 -50.0625 C 38.742188 -50.21875 40.285156 -50.140625 41.859375 -49.828125 Z M 42.828125 -8.078125 C 41.304688 -7.921875 39.757812 -8.003906 38.1875 -8.328125 L 37.859375 -7.25 C 39.785156 -6.90625 41.503906 -6.816406 43.015625 -6.984375 C 44.285156 -7.117188 45.484375 -7.457031 46.609375 -8 C 47.742188 -8.550781 48.804688 -9.347656 49.796875 -10.390625 C 50.003906 -10.660156 50.046875 -10.890625 49.921875 -11.078125 C 49.804688 -11.265625 49.628906 -11.34375 49.390625 -11.3125 C 49.242188 -11.300781 49.128906 -11.265625 49.046875 -11.203125 C 48.097656 -10.203125 47.101562 -9.460938 46.0625 -8.984375 C 45.03125 -8.503906 43.953125 -8.203125 42.828125 -8.078125 Z M 9.03125 -4.53125 C 10.945312 -4.195312 12.664062 -4.109375 14.1875 -4.265625 C 15.457031 -4.398438 16.660156 -4.738281 17.796875 -5.28125 C 18.929688 -5.832031 19.984375 -6.628906 20.953125 -7.671875 C 21.171875 -7.941406 21.21875 -8.171875 21.09375 -8.359375 C 20.976562 -8.546875 20.800781 -8.628906 20.5625 -8.609375 C 20.40625 -8.585938 20.28125 -8.546875 20.1875 -8.484375 C 19.257812 -7.492188 18.273438 -6.753906 17.234375 -6.265625 C 16.203125 -5.785156 15.125 -5.488281 14 -5.375 C 12.476562 -5.207031 10.929688 -5.285156 9.359375 -5.609375 Z M 22.46875 -32.28125 C 21.976562 -32.226562 21.894531 -31.914062 22.21875 -31.34375 C 22.488281 -30.632812 23.019531 -30.03125 23.8125 -29.53125 C 24.613281 -29.03125 25.453125 -28.828125 26.328125 -28.921875 C 26.960938 -28.984375 27.554688 -29.226562 28.109375 -29.65625 C 28.660156 -30.082031 29.101562 -30.789062 29.4375 -31.78125 C 29.382812 -32.207031 29.1875 -32.398438 28.84375 -32.359375 C 28.5 -32.328125 28.320312 -32.140625 28.3125 -31.796875 C 28.039062 -31.222656 27.71875 -30.804688 27.34375 -30.546875 C 26.976562 -30.285156 26.570312 -30.128906 26.125 -30.078125 C 25.34375 -29.992188 24.613281 -30.207031 23.9375 -30.71875 C 23.257812 -31.238281 22.921875 -31.726562 22.921875 -32.1875 C 22.722656 -32.257812 22.570312 -32.289062 22.46875 -32.28125 Z M 28.859375 -34.3125 C 28.535156 -34.070312 28.492188 -33.863281 28.734375 -33.6875 C 28.984375 -33.519531 29.207031 -33.445312 29.40625 -33.46875 C 29.84375 -33.507812 29.890625 -33.785156 29.546875 -34.296875 C 29.484375 -34.347656 29.410156 -34.394531 29.328125 -34.4375 C 29.253906 -34.476562 29.164062 -34.492188 29.0625 -34.484375 C 29.019531 -34.484375 28.953125 -34.425781 28.859375 -34.3125 Z M 15.921875 -46.96875 C 15.578125 -46.9375 15.40625 -46.742188 15.40625 -46.390625 L 15.40625 -46.3125 C 15.488281 -45.976562 15.703125 -45.828125 16.046875 -45.859375 C 16.335938 -45.890625 16.492188 -46.054688 16.515625 -46.359375 C 16.460938 -46.804688 16.265625 -47.007812 15.921875 -46.96875 Z M 36.09375 -9.28125 C 35.84375 -9.257812 35.6875 -9.097656 35.625 -8.796875 C 35.675781 -8.347656 35.875 -8.140625 36.21875 -8.171875 C 36.550781 -8.210938 36.722656 -8.410156 36.734375 -8.765625 L 36.734375 -8.84375 C 36.640625 -9.175781 36.425781 -9.320312 36.09375 -9.28125 Z M 6.78125 -6.0625 C 6.820312 -5.625 7.015625 -5.425781 7.359375 -5.46875 C 7.703125 -5.5 7.882812 -5.691406 7.90625 -6.046875 L 7.890625 -6.125 C 7.804688 -6.457031 7.59375 -6.609375 7.25 -6.578125 C 7 -6.546875 6.84375 -6.375 6.78125 -6.0625 Z M 43.3125 -49.390625 L 43.3125 -49.3125 C 43.394531 -48.96875 43.613281 -48.816406 43.96875 -48.859375 C 44.257812 -48.890625 44.414062 -49.050781 44.4375 -49.34375 C 44.382812 -49.789062 44.1875 -50 43.84375 -49.96875 C 43.488281 -49.925781 43.3125 -49.734375 43.3125 -49.390625 Z M 43.3125 -49.390625 " /></g></g></g><g fill="#FFFFFF" fill-opacity="1"><g transform="translate(288.43261, 56.319825)"><g><path d="M 53.9375 -17.53125 C 53.945312 -17.632812 53.84375 -16.765625 53.625 -14.921875 C 53.40625 -13.085938 53.023438 -9.847656 52.484375 -5.203125 C 52.367188 -4.128906 52.15625 -2.9375 51.84375 -1.625 C 51.53125 -0.3125 50.953125 0.914062 50.109375 2.0625 C 49.273438 3.207031 48.046875 4.085938 46.421875 4.703125 C 44.796875 5.328125 42.640625 5.492188 39.953125 5.203125 C 37.304688 4.921875 35.265625 4.304688 33.828125 3.359375 C 32.398438 2.421875 31.390625 1.300781 30.796875 0 C 30.210938 -1.289062 29.90625 -2.609375 29.875 -3.953125 C 29.84375 -5.304688 29.882812 -6.519531 30 -7.59375 L 30.171875 -9.21875 C 31.492188 -9.507812 32.632812 -10.195312 33.59375 -11.28125 C 34.550781 -12.375 35.164062 -13.722656 35.4375 -15.328125 L 33.59375 -15.515625 C 33.3125 -13.710938 32.625 -12.472656 31.53125 -11.796875 C 30.445312 -11.128906 29.289062 -10.859375 28.0625 -10.984375 C 26.84375 -11.117188 25.757812 -11.628906 24.8125 -12.515625 C 23.863281 -13.410156 23.4375 -14.769531 23.53125 -16.59375 L 21.6875 -16.78125 C 21.625 -15.15625 21.945312 -13.707031 22.65625 -12.4375 C 23.363281 -11.175781 24.328125 -10.265625 25.546875 -9.703125 L 25.375 -8.078125 C 25.257812 -7.003906 25.039062 -5.8125 24.71875 -4.5 C 24.40625 -3.195312 23.832031 -1.96875 23 -0.8125 C 22.164062 0.332031 20.945312 1.210938 19.34375 1.828125 C 17.75 2.453125 15.628906 2.625 12.984375 2.34375 C 10.296875 2.050781 8.21875 1.429688 6.75 0.484375 C 5.289062 -0.453125 4.269531 -1.566406 3.6875 -2.859375 C 3.101562 -4.160156 2.789062 -5.484375 2.75 -6.828125 C 2.71875 -8.179688 2.757812 -9.394531 2.875 -10.46875 C 3.332031 -15.125 3.644531 -18.375 3.8125 -20.21875 C 3.976562 -22.0625 4.054688 -22.929688 4.046875 -22.828125 C 4.347656 -25.660156 4.78125 -28.421875 5.34375 -31.109375 C 5.90625 -33.804688 6.75 -36.296875 7.875 -38.578125 C 9.007812 -40.867188 10.554688 -42.8125 12.515625 -44.40625 C 14.472656 -46.007812 16.972656 -47.15625 20.015625 -47.84375 C 23.054688 -48.539062 26.785156 -48.65625 31.203125 -48.1875 L 32.734375 -48.015625 C 37.148438 -47.546875 40.773438 -46.648438 43.609375 -45.328125 C 46.441406 -44.015625 48.644531 -42.367188 50.21875 -40.390625 C 51.789062 -38.421875 52.890625 -36.195312 53.515625 -33.71875 C 54.148438 -31.25 54.453125 -28.640625 54.421875 -25.890625 C 54.398438 -23.148438 54.238281 -20.363281 53.9375 -17.53125 Z M 27.5 -25.3125 C 27.457031 -24.914062 27.515625 -24.425781 27.671875 -23.84375 C 27.835938 -23.257812 28.457031 -22.910156 29.53125 -22.796875 C 30.53125 -22.796875 31.15625 -23.039062 31.40625 -23.53125 C 31.65625 -24.019531 31.800781 -24.460938 31.84375 -24.859375 L 32.390625 -30.078125 C 32.429688 -30.472656 32.375 -30.957031 32.21875 -31.53125 C 32.0625 -32.113281 31.441406 -32.460938 30.359375 -32.578125 C 29.421875 -32.640625 28.8125 -32.410156 28.53125 -31.890625 C 28.25 -31.378906 28.085938 -30.925781 28.046875 -30.53125 Z M 22.640625 -43.078125 C 22.421875 -42.898438 22.332031 -42.695312 22.375 -42.46875 C 22.425781 -42.238281 22.570312 -42.113281 22.8125 -42.09375 L 22.96875 -42.078125 C 25.28125 -42.921875 27.863281 -43.191406 30.71875 -42.890625 C 33.945312 -42.546875 36.914062 -41.628906 39.625 -40.140625 C 40.03125 -40.203125 40.222656 -40.367188 40.203125 -40.640625 C 40.179688 -40.921875 39.984375 -41.128906 39.609375 -41.265625 C 38.441406 -42.035156 37.175781 -42.640625 35.8125 -43.078125 C 34.457031 -43.515625 33.039062 -43.8125 31.5625 -43.96875 C 28.570312 -44.289062 25.597656 -43.992188 22.640625 -43.078125 Z M 47.5 -0.15625 C 47.769531 -0.375 47.867188 -0.585938 47.796875 -0.796875 C 47.722656 -1.003906 47.5625 -1.125 47.3125 -1.15625 C 47.164062 -1.164062 47.035156 -1.148438 46.921875 -1.109375 C 45.804688 -0.335938 44.691406 0.171875 43.578125 0.421875 C 42.460938 0.671875 41.34375 0.738281 40.21875 0.625 C 38.695312 0.457031 37.195312 0.0546875 35.71875 -0.578125 L 35.1875 0.390625 C 36.976562 1.128906 38.640625 1.578125 40.171875 1.734375 C 41.441406 1.867188 42.6875 1.789062 43.90625 1.5 C 45.125 1.207031 46.320312 0.65625 47.5 -0.15625 Z M 8.3125 -2.6875 C 10.101562 -1.945312 11.757812 -1.5 13.28125 -1.34375 C 14.5625 -1.207031 15.8125 -1.285156 17.03125 -1.578125 C 18.25 -1.867188 19.445312 -2.421875 20.625 -3.234375 C 20.90625 -3.453125 21.003906 -3.664062 20.921875 -3.875 C 20.847656 -4.082031 20.6875 -4.203125 20.4375 -4.234375 C 20.289062 -4.242188 20.160156 -4.226562 20.046875 -4.1875 C 18.929688 -3.414062 17.816406 -2.90625 16.703125 -2.65625 C 15.585938 -2.40625 14.460938 -2.335938 13.328125 -2.453125 C 11.816406 -2.617188 10.328125 -3.019531 8.859375 -3.65625 Z M 25.03125 -22.390625 C 24.6875 -22.421875 24.519531 -22.210938 24.53125 -21.765625 C 24.625 -20.816406 25.050781 -20.210938 25.8125 -19.953125 C 26.582031 -19.703125 27.363281 -19.535156 28.15625 -19.453125 C 28.550781 -19.515625 28.738281 -19.707031 28.71875 -20.03125 C 28.707031 -20.351562 28.503906 -20.535156 28.109375 -20.578125 L 27.53125 -20.640625 C 27.132812 -20.679688 26.722656 -20.769531 26.296875 -20.90625 C 25.867188 -21.050781 25.628906 -21.375 25.578125 -21.875 C 25.554688 -22.175781 25.375 -22.347656 25.03125 -22.390625 Z M 33.09375 -34.375 C 32.75 -34.414062 32.535156 -34.289062 32.453125 -34 C 32.367188 -33.71875 32.46875 -33.515625 32.75 -33.390625 C 33.28125 -33.222656 33.5625 -32.875 33.59375 -32.34375 C 33.632812 -31.820312 33.644531 -31.441406 33.625 -31.203125 C 33.6875 -30.847656 33.863281 -30.65625 34.15625 -30.625 C 34.5 -30.59375 34.691406 -30.773438 34.734375 -31.171875 C 34.765625 -31.796875 34.660156 -32.429688 34.421875 -33.078125 C 34.191406 -33.734375 33.75 -34.164062 33.09375 -34.375 Z M 40.671875 -39.375 C 40.628906 -39.039062 40.78125 -38.851562 41.125 -38.8125 C 41.519531 -38.769531 41.738281 -38.914062 41.78125 -39.25 C 41.820312 -39.632812 41.644531 -39.847656 41.25 -39.890625 C 40.90625 -39.929688 40.710938 -39.757812 40.671875 -39.375 Z M 33.296875 -1.578125 C 33.253906 -1.140625 33.40625 -0.90625 33.75 -0.875 C 34.09375 -0.832031 34.304688 -0.984375 34.390625 -1.328125 L 34.40625 -1.40625 C 34.394531 -1.75 34.21875 -1.941406 33.875 -1.984375 C 33.632812 -2.003906 33.441406 -1.867188 33.296875 -1.578125 Z M 6.4375 -4.65625 C 6.382812 -4.21875 6.53125 -3.984375 6.875 -3.953125 C 7.226562 -3.910156 7.441406 -4.0625 7.515625 -4.40625 L 7.53125 -4.484375 C 7.53125 -4.828125 7.351562 -5.019531 7 -5.0625 C 6.757812 -5.082031 6.570312 -4.945312 6.4375 -4.65625 Z M 6.4375 -4.65625 " /></g></g></g><g fill="#FFFFFF" fill-opacity="1"><g transform="translate(352.863175, 63.798299)"><g><path d="M 13.78125 -0.5 C 11.175781 -0.226562 9.082031 -0.429688 7.5 -1.109375 C 5.914062 -1.796875 4.703125 -2.753906 3.859375 -3.984375 C 3.015625 -5.210938 2.425781 -6.515625 2.09375 -7.890625 C 1.757812 -9.273438 1.535156 -10.554688 1.421875 -11.734375 L -1.328125 -38.921875 C -1.441406 -40.054688 -1.484375 -41.328125 -1.453125 -42.734375 C -1.429688 -44.148438 -1.144531 -45.539062 -0.59375 -46.90625 C -0.0390625 -48.269531 0.9375 -49.441406 2.34375 -50.421875 C 3.757812 -51.410156 5.796875 -52.039062 8.453125 -52.3125 C 10.066406 -52.476562 11.550781 -52.4375 12.90625 -52.1875 C 14.269531 -51.9375 15.570312 -51.285156 16.8125 -50.234375 C 18.0625 -49.191406 19.34375 -47.578125 20.65625 -45.390625 L 26.15625 -36.4375 L 27.875 -37.359375 L 23.40625 -44.625 C 23.082031 -45.34375 22.890625 -45.992188 22.828125 -46.578125 C 22.628906 -48.546875 23.441406 -50.320312 25.265625 -51.90625 C 27.085938 -53.5 29.785156 -54.476562 33.359375 -54.84375 C 35.960938 -55.101562 38.050781 -54.890625 39.625 -54.203125 C 41.207031 -53.523438 42.414062 -52.585938 43.25 -51.390625 C 44.09375 -50.191406 44.679688 -48.898438 45.015625 -47.515625 C 45.359375 -46.140625 45.59375 -44.859375 45.71875 -43.671875 L 48.46875 -16.484375 C 48.582031 -15.359375 48.625 -14.085938 48.59375 -12.671875 C 48.5625 -11.253906 48.269531 -9.863281 47.71875 -8.5 C 47.164062 -7.132812 46.179688 -5.945312 44.765625 -4.9375 C 43.359375 -3.925781 41.332031 -3.285156 38.6875 -3.015625 C 37.070312 -2.847656 35.585938 -2.921875 34.234375 -3.234375 C 32.890625 -3.546875 31.523438 -4.328125 30.140625 -5.578125 C 28.753906 -6.828125 27.179688 -8.769531 25.421875 -11.40625 L 20.140625 -19.71875 L 18.515625 -18.671875 L 23.703125 -10.78125 C 24.023438 -10.070312 24.21875 -9.425781 24.28125 -8.84375 C 24.476562 -6.882812 23.679688 -5.09375 21.890625 -3.46875 C 20.109375 -1.851562 17.40625 -0.863281 13.78125 -0.5 Z M 45.453125 -11.0625 C 45.304688 -11.039062 45.179688 -11.003906 45.078125 -10.953125 C 44.148438 -9.960938 43.164062 -9.226562 42.125 -8.75 C 41.082031 -8.28125 39.992188 -7.988281 38.859375 -7.875 C 37.347656 -7.726562 35.804688 -7.816406 34.234375 -8.140625 L 33.90625 -7.078125 C 35.8125 -6.722656 37.523438 -6.625 39.046875 -6.78125 C 40.316406 -6.90625 41.519531 -7.234375 42.65625 -7.765625 C 43.789062 -8.304688 44.851562 -9.097656 45.84375 -10.140625 C 46.0625 -10.410156 46.113281 -10.632812 46 -10.8125 C 45.882812 -11 45.703125 -11.082031 45.453125 -11.0625 Z M 26.171875 -48.78125 C 26.003906 -48.5625 25.976562 -48.34375 26.09375 -48.125 C 26.207031 -47.914062 26.363281 -47.816406 26.5625 -47.828125 C 26.71875 -47.847656 26.84375 -47.890625 26.9375 -47.953125 C 27.863281 -48.941406 28.847656 -49.675781 29.890625 -50.15625 C 30.929688 -50.632812 32.019531 -50.929688 33.15625 -51.046875 C 34.675781 -51.203125 36.21875 -51.109375 37.78125 -50.765625 L 38.125 -51.828125 C 36.207031 -52.179688 34.488281 -52.28125 32.96875 -52.125 C 31.738281 -52 30.554688 -51.679688 29.421875 -51.171875 C 28.285156 -50.660156 27.203125 -49.863281 26.171875 -48.78125 Z M 9.3125 -5.546875 L 8.984375 -4.484375 C 10.890625 -4.128906 12.601562 -4.023438 14.125 -4.171875 C 15.40625 -4.304688 16.609375 -4.640625 17.734375 -5.171875 C 18.867188 -5.710938 19.929688 -6.5 20.921875 -7.53125 C 21.148438 -7.800781 21.203125 -8.03125 21.078125 -8.21875 C 20.960938 -8.414062 20.78125 -8.5 20.53125 -8.46875 C 20.382812 -8.457031 20.265625 -8.421875 20.171875 -8.359375 C 19.234375 -7.367188 18.242188 -6.632812 17.203125 -6.15625 C 16.160156 -5.6875 15.070312 -5.394531 13.9375 -5.28125 C 12.425781 -5.125 10.882812 -5.210938 9.3125 -5.546875 Z M 1.84375 -45.546875 C 1.675781 -45.347656 1.648438 -45.140625 1.765625 -44.921875 C 1.878906 -44.710938 2.035156 -44.617188 2.234375 -44.640625 C 2.390625 -44.660156 2.515625 -44.703125 2.609375 -44.765625 C 3.535156 -45.742188 4.519531 -46.472656 5.5625 -46.953125 C 6.601562 -47.429688 7.691406 -47.726562 8.828125 -47.84375 C 10.347656 -47.988281 11.890625 -47.890625 13.453125 -47.546875 L 13.796875 -48.640625 C 11.878906 -48.984375 10.160156 -49.078125 8.640625 -48.921875 C 7.410156 -48.796875 6.222656 -48.476562 5.078125 -47.96875 C 3.941406 -47.457031 2.863281 -46.648438 1.84375 -45.546875 Z M 14.921875 -47.03125 C 15.003906 -46.695312 15.210938 -46.546875 15.546875 -46.578125 C 15.835938 -46.609375 16 -46.769531 16.03125 -47.0625 C 15.976562 -47.507812 15.78125 -47.71875 15.4375 -47.6875 C 15.101562 -47.65625 14.929688 -47.460938 14.921875 -47.109375 Z M 32.109375 -9.125 C 31.867188 -9.101562 31.710938 -8.9375 31.640625 -8.625 C 31.679688 -8.1875 31.875 -7.984375 32.21875 -8.015625 C 32.570312 -8.046875 32.753906 -8.238281 32.765625 -8.59375 L 32.765625 -8.65625 C 32.679688 -9 32.460938 -9.15625 32.109375 -9.125 Z M 7.203125 -6.515625 C 6.972656 -6.492188 6.820312 -6.328125 6.75 -6.015625 C 6.789062 -5.578125 6.976562 -5.375 7.3125 -5.40625 C 7.65625 -5.445312 7.835938 -5.640625 7.859375 -5.984375 L 7.84375 -6.0625 C 7.757812 -6.40625 7.546875 -6.554688 7.203125 -6.515625 Z M 39.25 -50.234375 C 39.34375 -49.898438 39.554688 -49.75 39.890625 -49.78125 C 40.179688 -49.8125 40.335938 -49.972656 40.359375 -50.265625 C 40.304688 -50.710938 40.109375 -50.921875 39.765625 -50.890625 C 39.429688 -50.859375 39.257812 -50.664062 39.25 -50.3125 Z M 39.25 -50.234375 " /></g></g></g><g fill="#FFFFFF" fill-opacity="1"><g transform="translate(404.282253, 57.523706)"><g><path d="M 43.484375 -18.234375 C 45.148438 -18.054688 46.550781 -17.347656 47.6875 -16.109375 C 48.820312 -14.878906 49.644531 -13.40625 50.15625 -11.6875 C 50.675781 -9.976562 50.847656 -8.269531 50.671875 -6.5625 C 50.304688 -2.988281 48.171875 -0.191406 44.265625 1.828125 C 40.367188 3.859375 34.847656 4.503906 27.703125 3.765625 L 26.734375 3.671875 C 21.847656 3.015625 17.613281 1.585938 14.03125 -0.609375 C 10.445312 -2.816406 7.785156 -5.953125 6.046875 -10.015625 C 4.304688 -14.085938 3.75 -19.160156 4.375 -25.234375 C 4.90625 -30.390625 6.367188 -34.75 8.765625 -38.3125 C 11.171875 -41.875 14.359375 -44.515625 18.328125 -46.234375 C 22.296875 -47.960938 26.882812 -48.601562 32.09375 -48.15625 L 33.0625 -48.0625 C 37.800781 -47.570312 41.710938 -46.546875 44.796875 -44.984375 C 47.890625 -43.429688 50.148438 -41.550781 51.578125 -39.34375 C 53.003906 -37.132812 53.597656 -34.832031 53.359375 -32.4375 C 53.191406 -30.863281 52.691406 -29.269531 51.859375 -27.65625 C 51.023438 -26.039062 49.929688 -24.71875 48.578125 -23.6875 C 47.234375 -22.664062 45.679688 -22.25 43.921875 -22.4375 C 42.410156 -22.59375 41.144531 -23.015625 40.125 -23.703125 C 39.101562 -24.398438 38.082031 -25.097656 37.0625 -25.796875 C 36.039062 -26.503906 34.773438 -26.9375 33.265625 -27.09375 C 31.347656 -27.300781 29.832031 -26.890625 28.71875 -25.859375 C 27.601562 -24.828125 26.960938 -23.503906 26.796875 -21.890625 C 26.628906 -20.359375 26.992188 -19.03125 27.890625 -17.90625 C 28.785156 -16.78125 30.191406 -16.113281 32.109375 -15.90625 C 33.617188 -15.75 34.945312 -15.910156 36.09375 -16.390625 C 37.238281 -16.867188 38.378906 -17.332031 39.515625 -17.78125 C 40.648438 -18.238281 41.972656 -18.390625 43.484375 -18.234375 Z M 15.375 -39.40625 C 14.90625 -38.8125 14.4375 -38.253906 13.96875 -37.734375 C 13.5 -37.210938 13.144531 -36.546875 12.90625 -35.734375 C 12.96875 -35.390625 13.144531 -35.203125 13.4375 -35.171875 C 13.738281 -35.140625 13.925781 -35.238281 14 -35.46875 C 14.15625 -36.039062 14.398438 -36.53125 14.734375 -36.9375 C 15.078125 -37.351562 15.445312 -37.769531 15.84375 -38.1875 C 18.25 -40.851562 20.953125 -42.578125 23.953125 -43.359375 C 26.953125 -44.140625 30.164062 -44.351562 33.59375 -44 C 34.820312 -43.875 36.085938 -43.554688 37.390625 -43.046875 C 38.703125 -42.535156 39.816406 -42.046875 40.734375 -41.578125 C 41.648438 -41.117188 42.109375 -40.890625 42.109375 -40.890625 C 42.191406 -40.734375 42.285156 -40.648438 42.390625 -40.640625 C 42.585938 -40.617188 42.804688 -40.71875 43.046875 -40.9375 C 43.296875 -41.164062 43.4375 -41.421875 43.46875 -41.703125 C 42.039062 -42.703125 40.398438 -43.519531 38.546875 -44.15625 C 36.703125 -44.789062 34.785156 -45.210938 32.796875 -45.421875 C 29.597656 -45.753906 26.425781 -45.445312 23.28125 -44.5 C 20.144531 -43.5625 17.507812 -41.863281 15.375 -39.40625 Z M 10.359375 -14.6875 C 10.421875 -13.882812 10.628906 -13.164062 10.984375 -12.53125 C 11.347656 -11.894531 11.6875 -11.238281 12 -10.5625 C 13.59375 -7.726562 15.832031 -5.53125 18.71875 -3.96875 C 21.601562 -2.40625 24.640625 -1.457031 27.828125 -1.125 C 29.835938 -0.925781 31.8125 -0.957031 33.75 -1.21875 C 35.6875 -1.488281 37.453125 -1.941406 39.046875 -2.578125 C 39.078125 -2.867188 38.992188 -3.144531 38.796875 -3.40625 C 38.597656 -3.675781 38.398438 -3.820312 38.203125 -3.84375 C 38.109375 -3.851562 38.003906 -3.785156 37.890625 -3.640625 C 37.890625 -3.640625 37.390625 -3.503906 36.390625 -3.234375 C 35.398438 -2.972656 34.210938 -2.726562 32.828125 -2.5 C 31.453125 -2.269531 30.144531 -2.21875 28.90625 -2.34375 C 25.476562 -2.695312 22.375 -3.578125 19.59375 -4.984375 C 16.820312 -6.390625 14.53125 -8.628906 12.71875 -11.703125 C 12.425781 -12.160156 12.15625 -12.625 11.90625 -13.09375 C 11.65625 -13.570312 11.515625 -14.113281 11.484375 -14.71875 C 11.460938 -14.957031 11.304688 -15.09375 11.015625 -15.125 C 10.710938 -15.15625 10.492188 -15.007812 10.359375 -14.6875 Z M 26.484375 -15.390625 C 25.992188 -15.441406 25.84375 -15.15625 26.03125 -14.53125 C 26.507812 -13.550781 27.191406 -12.941406 28.078125 -12.703125 C 28.972656 -12.460938 29.941406 -12.285156 30.984375 -12.171875 C 31.378906 -12.222656 31.566406 -12.410156 31.546875 -12.734375 C 31.535156 -13.054688 31.332031 -13.238281 30.9375 -13.28125 L 30.5 -13.328125 C 29.769531 -13.410156 29.09375 -13.554688 28.46875 -13.765625 C 27.84375 -13.972656 27.320312 -14.445312 26.90625 -15.1875 C 26.726562 -15.3125 26.585938 -15.378906 26.484375 -15.390625 Z M 28.8125 -29.40625 C 28.59375 -29.226562 28.519531 -29.019531 28.59375 -28.78125 C 28.675781 -28.550781 28.816406 -28.425781 29.015625 -28.40625 C 29.160156 -28.394531 29.285156 -28.410156 29.390625 -28.453125 C 29.984375 -28.878906 30.628906 -29.15625 31.328125 -29.28125 C 32.035156 -29.414062 33 -29.421875 34.21875 -29.296875 C 34.625 -29.359375 34.816406 -29.550781 34.796875 -29.875 C 34.785156 -30.195312 34.585938 -30.378906 34.203125 -30.421875 C 33.265625 -30.515625 32.332031 -30.519531 31.40625 -30.4375 C 30.488281 -30.363281 29.625 -30.019531 28.8125 -29.40625 Z M 41.390625 -3.796875 L 41.46875 -3.796875 C 41.863281 -3.753906 42.097656 -3.878906 42.171875 -4.171875 C 42.253906 -4.460938 42.128906 -4.695312 41.796875 -4.875 C 41.765625 -4.988281 41.648438 -5.054688 41.453125 -5.078125 C 41.109375 -5.109375 40.894531 -4.957031 40.8125 -4.625 C 40.851562 -4.5625 40.867188 -4.484375 40.859375 -4.390625 C 40.867188 -4.035156 41.046875 -3.835938 41.390625 -3.796875 Z M 44.875 -39.5625 C 44.863281 -39.457031 44.828125 -39.382812 44.765625 -39.34375 C 44.785156 -38.988281 44.96875 -38.789062 45.3125 -38.75 C 45.507812 -38.738281 45.640625 -38.78125 45.703125 -38.875 C 46.054688 -38.988281 46.222656 -39.195312 46.203125 -39.5 C 46.191406 -39.800781 45.988281 -39.96875 45.59375 -40 L 45.515625 -40.015625 C 45.171875 -40.046875 44.957031 -39.894531 44.875 -39.5625 Z M 37.296875 -28.828125 C 37.003906 -28.859375 36.898438 -28.679688 36.984375 -28.296875 C 37.066406 -27.921875 37.207031 -27.722656 37.40625 -27.703125 C 37.5 -27.691406 37.632812 -27.773438 37.8125 -27.953125 C 37.96875 -28.085938 37.960938 -28.3125 37.796875 -28.625 C 37.660156 -28.738281 37.492188 -28.804688 37.296875 -28.828125 Z M 33.234375 -13.265625 C 33.179688 -13.273438 33.109375 -13.238281 33.015625 -13.15625 C 32.640625 -12.988281 32.550781 -12.796875 32.75 -12.578125 C 32.957031 -12.367188 33.160156 -12.253906 33.359375 -12.234375 C 33.796875 -12.179688 33.894531 -12.4375 33.65625 -13 C 33.613281 -13.0625 33.554688 -13.117188 33.484375 -13.171875 C 33.410156 -13.222656 33.328125 -13.253906 33.234375 -13.265625 Z M 33.234375 -13.265625 " /></g></g></g><g fill="#FFFFFF" fill-opacity="1"><g transform="translate(467.144252, 62.440802)"><g><path d="M 28.96875 -53.671875 C 29.988281 -53.722656 31.0625 -53.585938 32.1875 -53.265625 C 33.320312 -52.941406 34.300781 -52.257812 35.125 -51.21875 C 35.957031 -50.175781 36.5 -48.523438 36.75 -46.265625 C 37.03125 -43.710938 36.867188 -41.8125 36.265625 -40.5625 C 35.671875 -39.3125 34.859375 -38.476562 33.828125 -38.0625 C 32.804688 -37.644531 31.757812 -37.378906 30.6875 -37.265625 L 19.890625 -36.078125 L 20.125 -34.03125 L 28.796875 -34.984375 C 29.671875 -35.078125 30.578125 -35 31.515625 -34.75 C 32.460938 -34.507812 33.304688 -33.945312 34.046875 -33.0625 C 34.785156 -32.175781 35.253906 -30.851562 35.453125 -29.09375 C 35.640625 -27.382812 35.46875 -26.015625 34.9375 -24.984375 C 34.40625 -23.953125 33.703125 -23.21875 32.828125 -22.78125 C 31.960938 -22.34375 31.09375 -22.078125 30.21875 -21.984375 L 17.875 -20.625 L 18.109375 -18.5 L 32.65625 -20.109375 C 33.6875 -20.160156 34.765625 -20.023438 35.890625 -19.703125 C 37.015625 -19.378906 37.992188 -18.679688 38.828125 -17.609375 C 39.660156 -16.546875 40.203125 -14.882812 40.453125 -12.625 C 40.691406 -10.414062 40.519531 -8.707031 39.9375 -7.5 C 39.351562 -6.300781 38.546875 -5.429688 37.515625 -4.890625 C 36.484375 -4.359375 35.460938 -3.992188 34.453125 -3.796875 L 10.5 -1.15625 C 8.644531 -0.945312 7.125 -1.148438 5.9375 -1.765625 C 4.75 -2.378906 3.84375 -3.171875 3.21875 -4.140625 C 2.59375 -5.109375 2.148438 -6.085938 1.890625 -7.078125 C 1.640625 -8.066406 1.476562 -8.851562 1.40625 -9.4375 L -2.0625 -40.953125 C -2.125 -41.546875 -2.132812 -42.351562 -2.09375 -43.375 C -2.0625 -44.394531 -1.84375 -45.445312 -1.4375 -46.53125 C -1.039062 -47.613281 -0.332031 -48.582031 0.6875 -49.4375 C 1.71875 -50.289062 3.160156 -50.820312 5.015625 -51.03125 Z M 7.125 -9.5625 C 6.78125 -9.519531 6.660156 -9.28125 6.765625 -8.84375 C 6.890625 -8.507812 7.007812 -8.160156 7.125 -7.796875 C 7.238281 -7.441406 7.414062 -7.101562 7.65625 -6.78125 C 8.457031 -5.738281 9.84375 -5.148438 11.8125 -5.015625 C 13.789062 -4.890625 15.835938 -4.941406 17.953125 -5.171875 C 19.566406 -5.347656 21.097656 -5.566406 22.546875 -5.828125 C 24.003906 -6.085938 25.128906 -6.257812 25.921875 -6.34375 C 26.304688 -6.488281 26.453125 -6.710938 26.359375 -7.015625 C 26.273438 -7.328125 26.039062 -7.460938 25.65625 -7.421875 C 24.757812 -7.328125 23.609375 -7.140625 22.203125 -6.859375 C 20.796875 -6.585938 19.3125 -6.363281 17.75 -6.1875 C 15.832031 -5.976562 14 -5.953125 12.25 -6.109375 C 10.5 -6.265625 9.226562 -6.769531 8.4375 -7.625 C 8.28125 -7.84375 8.160156 -8.097656 8.078125 -8.390625 C 7.992188 -8.679688 7.890625 -8.945312 7.765625 -9.1875 C 7.679688 -9.46875 7.46875 -9.59375 7.125 -9.5625 Z M 2.875 -42.765625 C 2.875 -42.316406 3.046875 -42.113281 3.390625 -42.15625 C 3.734375 -42.1875 3.914062 -42.351562 3.9375 -42.65625 C 4.007812 -42.914062 4.050781 -43.203125 4.0625 -43.515625 C 4.070312 -43.835938 4.144531 -44.109375 4.28125 -44.328125 C 4.84375 -45.390625 5.960938 -46.171875 7.640625 -46.671875 C 9.328125 -47.171875 11.125 -47.523438 13.03125 -47.734375 C 14.601562 -47.910156 16.101562 -48.015625 17.53125 -48.046875 C 18.957031 -48.085938 20.113281 -48.15625 21 -48.25 C 21.394531 -48.289062 21.597656 -48.472656 21.609375 -48.796875 C 21.628906 -49.117188 21.441406 -49.304688 21.046875 -49.359375 C 20.253906 -49.273438 19.117188 -49.203125 17.640625 -49.140625 C 16.160156 -49.078125 14.613281 -48.957031 13 -48.78125 C 10.894531 -48.550781 8.890625 -48.15625 6.984375 -47.59375 C 5.085938 -47.039062 3.863281 -46.160156 3.3125 -44.953125 C 3.144531 -44.585938 3.046875 -44.234375 3.015625 -43.890625 C 2.984375 -43.546875 2.9375 -43.171875 2.875 -42.765625 Z M 25.046875 -49.359375 C 24.847656 -49.335938 24.707031 -49.132812 24.625 -48.75 C 24.550781 -48.375 24.660156 -48.207031 24.953125 -48.25 C 25.148438 -48.269531 25.3125 -48.335938 25.4375 -48.453125 C 25.601562 -48.753906 25.609375 -48.972656 25.453125 -49.109375 C 25.273438 -49.285156 25.140625 -49.367188 25.046875 -49.359375 Z M 30.015625 -8.203125 C 29.859375 -8.296875 29.679688 -8.332031 29.484375 -8.3125 C 29.203125 -8.269531 29.140625 -8.070312 29.296875 -7.71875 C 29.453125 -7.363281 29.628906 -7.195312 29.828125 -7.21875 C 29.929688 -7.226562 30.039062 -7.34375 30.15625 -7.5625 C 30.289062 -7.71875 30.242188 -7.929688 30.015625 -8.203125 Z M 30.015625 -8.203125 " /></g></g></g><g fill="#FFFFFF" fill-opacity="1"><g transform="translate(509.452244, 57.509999)"><g><path d="M 54.59375 -25.703125 C 54.363281 -23.453125 53.914062 -21.457031 53.25 -19.71875 C 52.582031 -17.976562 51.742188 -16.492188 50.734375 -15.265625 L 48.578125 -18.890625 L 47.3125 -18.125 L 50.671875 -12.296875 C 51.117188 -11.359375 51.523438 -10.25 51.890625 -8.96875 C 52.265625 -7.695312 52.382812 -6.378906 52.25 -5.015625 C 52.101562 -3.546875 51.5 -2.082031 50.4375 -0.625 C 49.375 0.832031 47.550781 2.125 44.96875 3.25 C 43.625 3.863281 42.382812 4.273438 41.25 4.484375 C 40.113281 4.703125 39.078125 4.765625 38.140625 4.671875 C 36.523438 4.503906 35.164062 3.976562 34.0625 3.09375 C 32.96875 2.21875 32.082031 1.203125 31.40625 0.046875 C 30.726562 -1.109375 30.164062 -2.148438 29.71875 -3.078125 L 24.875 -15.734375 L 23.078125 -15.03125 L 25.578125 -8.6875 L 25.546875 -8.3125 C 25.441406 -7.226562 25.238281 -6.03125 24.9375 -4.71875 C 24.644531 -3.414062 24.078125 -2.191406 23.234375 -1.046875 C 22.398438 0.0976562 21.171875 0.988281 19.546875 1.625 C 17.929688 2.269531 15.769531 2.457031 13.0625 2.1875 C 10.414062 1.925781 8.375 1.320312 6.9375 0.375 C 5.5 -0.5625 4.484375 -1.671875 3.890625 -2.953125 C 3.304688 -4.242188 2.992188 -5.554688 2.953125 -6.890625 C 2.910156 -8.234375 2.941406 -9.445312 3.046875 -10.53125 L 5.03125 -30.59375 C 5.445312 -34.8125 6.429688 -38.179688 7.984375 -40.703125 C 9.546875 -43.234375 11.570312 -45.09375 14.0625 -46.28125 C 16.5625 -47.46875 19.394531 -48.175781 22.5625 -48.40625 C 25.726562 -48.632812 29.125 -48.570312 32.75 -48.21875 C 40.300781 -47.46875 46 -45.28125 49.84375 -41.65625 C 53.695312 -38.039062 55.28125 -32.722656 54.59375 -25.703125 Z M 17.46875 -43.046875 C 17.257812 -42.867188 17.191406 -42.660156 17.265625 -42.421875 C 17.335938 -42.191406 17.472656 -42.066406 17.671875 -42.046875 C 17.816406 -42.035156 17.941406 -42.050781 18.046875 -42.09375 C 19.660156 -42.925781 21.753906 -43.460938 24.328125 -43.703125 C 26.898438 -43.953125 29.503906 -43.945312 32.140625 -43.6875 C 34.015625 -43.5 35.796875 -43.207031 37.484375 -42.8125 C 39.179688 -42.414062 40.613281 -41.890625 41.78125 -41.234375 C 41.882812 -41.179688 42.007812 -41.144531 42.15625 -41.125 C 42.40625 -41.101562 42.570312 -41.1875 42.65625 -41.375 C 42.75 -41.570312 42.734375 -41.769531 42.609375 -41.96875 C 41.722656 -42.507812 40.253906 -43.085938 38.203125 -43.703125 C 36.160156 -44.316406 33.867188 -44.753906 31.328125 -45.015625 C 28.972656 -45.242188 26.570312 -45.25 24.125 -45.03125 C 21.675781 -44.8125 19.457031 -44.148438 17.46875 -43.046875 Z M 30.171875 -32.4375 C 29.117188 -32.488281 28.457031 -32.253906 28.1875 -31.734375 C 27.914062 -31.222656 27.757812 -30.769531 27.71875 -30.375 L 27.515625 -28.234375 C 27.472656 -27.847656 27.546875 -27.359375 27.734375 -26.765625 C 27.921875 -26.171875 28.582031 -25.820312 29.71875 -25.71875 C 30.695312 -25.726562 31.320312 -25.976562 31.59375 -26.46875 C 31.875 -26.957031 32.035156 -27.394531 32.078125 -27.78125 L 32.28125 -29.921875 C 32.320312 -30.316406 32.257812 -30.804688 32.09375 -31.390625 C 31.925781 -31.984375 31.285156 -32.332031 30.171875 -32.4375 Z M 48.9375 -6.078125 C 48.738281 -6.097656 48.550781 -6.019531 48.375 -5.84375 C 47.269531 -3.96875 45.875 -2.664062 44.1875 -1.9375 C 42.5 -1.21875 40.5625 -0.816406 38.375 -0.734375 L 38.34375 0.359375 C 40.675781 0.296875 42.769531 -0.117188 44.625 -0.890625 C 46.488281 -1.671875 48.046875 -3.113281 49.296875 -5.21875 C 49.421875 -5.46875 49.4375 -5.664062 49.34375 -5.8125 C 49.257812 -5.96875 49.125 -6.054688 48.9375 -6.078125 Z M 9.75 -2.609375 C 11.5625 -1.878906 13.226562 -1.4375 14.75 -1.28125 C 16.03125 -1.15625 17.28125 -1.242188 18.5 -1.546875 C 19.71875 -1.847656 20.910156 -2.410156 22.078125 -3.234375 C 22.335938 -3.453125 22.425781 -3.664062 22.34375 -3.875 C 22.269531 -4.082031 22.113281 -4.203125 21.875 -4.234375 C 21.71875 -4.242188 21.59375 -4.226562 21.5 -4.1875 C 20.382812 -3.40625 19.269531 -2.882812 18.15625 -2.625 C 17.039062 -2.363281 15.921875 -2.289062 14.796875 -2.40625 C 13.265625 -2.550781 11.769531 -2.945312 10.3125 -3.59375 Z M 25.265625 -27.28125 C 24.921875 -27.3125 24.734375 -27.128906 24.703125 -26.734375 C 24.703125 -25.835938 24.953125 -25.019531 25.453125 -24.28125 C 25.953125 -23.539062 26.660156 -23.078125 27.578125 -22.890625 C 27.960938 -22.859375 28.171875 -23.015625 28.203125 -23.359375 C 28.242188 -23.703125 28.09375 -23.910156 27.75 -23.984375 C 26.988281 -24.160156 26.46875 -24.617188 26.1875 -25.359375 C 25.914062 -26.109375 25.785156 -26.554688 25.796875 -26.703125 C 25.785156 -27.046875 25.609375 -27.238281 25.265625 -27.28125 Z M 33.140625 -35.484375 C 32.742188 -35.523438 32.53125 -35.382812 32.5 -35.0625 C 32.46875 -34.738281 32.617188 -34.515625 32.953125 -34.390625 C 33.773438 -34.253906 34.304688 -33.800781 34.546875 -33.03125 C 34.796875 -32.269531 34.914062 -31.816406 34.90625 -31.671875 C 34.96875 -31.316406 35.148438 -31.125 35.453125 -31.09375 C 35.796875 -31.0625 35.984375 -31.242188 36.015625 -31.640625 C 36.003906 -32.535156 35.75 -33.351562 35.25 -34.09375 C 34.757812 -34.832031 34.054688 -35.296875 33.140625 -35.484375 Z M 43.734375 -41.34375 C 43.484375 -41.269531 43.320312 -41.109375 43.25 -40.859375 L 43.21875 -40.5625 C 43.238281 -40.21875 43.421875 -40.03125 43.765625 -40 C 44.003906 -39.96875 44.15625 -40.023438 44.21875 -40.171875 C 44.507812 -40.296875 44.644531 -40.503906 44.625 -40.796875 C 44.613281 -41.097656 44.414062 -41.269531 44.03125 -41.3125 Z M 36.375 -1.375 C 35.925781 -1.414062 35.734375 -1.210938 35.796875 -0.765625 C 35.910156 -0.410156 36.085938 -0.222656 36.328125 -0.203125 C 36.773438 -0.148438 36.976562 -0.398438 36.9375 -0.953125 L 36.859375 -1.046875 C 36.734375 -1.242188 36.570312 -1.351562 36.375 -1.375 Z M 7.875 -4.546875 C 7.832031 -4.117188 7.984375 -3.890625 8.328125 -3.859375 C 8.660156 -3.828125 8.875 -3.976562 8.96875 -4.3125 L 8.96875 -4.390625 C 8.945312 -4.734375 8.769531 -4.921875 8.4375 -4.953125 C 8.1875 -4.984375 8 -4.847656 7.875 -4.546875 Z M 7.875 -4.546875 " /></g></g></g></g></g></svg>